{"title":"Urine Trouble 2006 DVDRip GoGo","uid":5623023,"size":87192384,"categoryP":"video","categoryS":"movie_clips","magnet":"?xt=urn:btih:93966c2df75c34c5f002c61c0613a3981eb0873e&amp;dn=Urine+Trouble+2006+DVDRip+GoGo&amp;tr=udp%3A%2F%2Ftracker.openbittorrent.com%3A80&amp;tr=udp%3A%2F%2Fopen.demonii.com%3A1337&amp;tr=udp%3A%2F%2Ftracker.coppersurfer.tk%3A6969&amp;tr=udp%3A%2F%2Fexodus.desync.com%3A6969","seeders":0,"leechers":1,"uploader":"fasamoo","files":7,"time":1276352168,"description":"\n\n\n\n YOU'LL NEVER PEE AGAIN!!!\nWatch in horror as killer urinal cakes attack unsuspecting resturant \n\npatrons!\n\n\n\n\n\n\n\nGeneral\nComplete name                    : Urine Trouble.avi\nIMDB Link                        :[url]http://www.dvdresurrections.com/MovieReview_UrineTrouble.html[/url]\nFormat                           : AVI\nFormat/Info                      : Audio Video Interleave\nFile size                        : 83.0 MiB\nDuration                         : 6mn 7s\nOverall bit rate                 : 1 892 Kbps\nWriting application              : Lavf51.12.1\n\nVideo\nID                               : 0\nFormat                           : MPEG-4 Visual\nFormat profile                   : Simple@L1\nFormat settings, BVOP            : No\nFormat settings, QPel            : No\nFormat settings, GMC             : No warppoints\nFormat settings, Matrix          : Default (H.263)\nCodec ID                         : DX50\nCodec ID/Hint                    : DivX 5\nDuration                         : 6mn 7s\nBit rate                         : 1 623 Kbps\nWidth                            : 704 pixels\nHeight                           : 384 pixels\nDisplay aspect ratio             : 16:9\nFrame rate                       : 23.976 fps\nColor space                      : YUV\nChroma subsampling               : 4:2:0\nBit depth                        : 8 bits\nScan type                        : Progressive\nBits/(Pixel*Frame)               : 0.250\nStream size                      : 71.2 MiB (86%)\nWriting library                  : Lavc51.40.4\n\nAudio\nID                               : 1\nFormat                           : MPEG Audio\nFormat version                   : Version 1\nFormat profile                   : Layer 3\nMode                             : Joint stereo\nMode extension                   : MS Stereo\nCodec ID                         : 55\nCodec ID/Hint                    : MP3\nDuration                         : 6mn 7s\nBit rate mode                    : Constant\nBit rate                         : 256 Kbps\nChannel(s)                       : 2 channels\nSampling rate                    : 48.0 KHz\nStream size                      : 11.2 MiB (14%)\nAlignment                        : Aligned on interleaves\nInterleave, duration             : 24 ms (0.58 video frame)\nInterleave, preload duration     : 24 ms\nWriting library                  : LAME3.97\nLanguge                          : English\nSubtitles                        : None\nGenre                            : Horror \n\n[img]http://imgboot.com/images/fasamoo/pleaseseed.gif[/img] \n","torrent":{"xt":"urn:btih:93966c2df75c34c5f002c61c0613a3981eb0873e","amp;dn":"Urine+Trouble+2006+DVDRip+GoGo","amp;tr":["udp%3A%2F%2Ftracker.openbittorrent.com%3A80","udp%3A%2F%2Fopen.demonii.com%3A1337","udp%3A%2F%2Ftracker.coppersurfer.tk%3A6969","udp%3A%2F%2Fexodus.desync.com%3A6969"],"infoHash":"93966c2df75c34c5f002c61c0613a3981eb0873e","infoHashBuffer":{"type":"Buffer","data":[147,150,108,45,247,92,52,197,240,2,198,28,6,19,163,152,30,176,135,62]},"announce":[],"urlList":[]}}